<svg width="749" height="749" viewBox="0 0 749 749" fill="none" xmlns="http://www.w3.org/2000/svg">
<path fill-rule="evenodd" clip-rule="evenodd" d="M225.075 709.044C128.464 774.874 0 739.517 0 739.517V721.765C33.2411 704.469 91.0448 663.928 83.8714 601.749L225.075 709.044Z" fill="#B5C18E"/>
<path d="M336.114 36.945C338.306 46.5096 336.563 56.5426 331.268 64.8383C325.973 73.1339 317.559 79.0132 307.876 81.1836C245.602 95.208 189.495 128.523 147.744 176.266C105.994 224.009 80.7839 283.681 75.7944 346.574C70.805 409.468 86.2969 472.29 120.009 525.873C153.722 579.456 203.89 620.995 263.193 644.429C322.496 667.862 387.829 671.962 449.658 656.132C511.487 640.302 566.576 605.369 606.885 556.432C647.193 507.494 670.612 447.114 673.723 384.103C676.834 321.092 659.475 258.748 624.179 206.169C621.457 202.123 619.568 197.586 618.621 192.819C617.674 188.052 617.687 183.147 618.659 178.385C620.622 168.767 626.373 160.314 634.646 154.884C642.92 149.454 653.038 147.493 662.776 149.432C667.598 150.392 672.181 152.28 676.263 154.989C680.346 157.699 683.848 161.176 686.571 165.222C727.379 225.818 749.102 296.994 749 369.77C749 574.059 581.336 739.658 374.5 739.658C167.664 739.658 0 574.059 0 369.77C0 193.704 124.521 46.4142 291.323 9.05547C301.007 6.89018 311.165 8.61171 319.564 13.8416C327.964 19.0715 333.916 27.3816 336.114 36.945ZM411.95 37.3889C411.945 31.8402 413.192 26.3602 415.6 21.3469C418.008 16.3337 421.516 11.9131 425.87 8.40645C430.224 4.89975 435.313 2.39495 440.77 1.07403C446.226 -0.246883 451.912 -0.350752 457.414 0.769979L461.721 1.91664L573.584 38.7575C582.672 41.7238 590.265 48.0143 594.803 56.337C599.342 64.6597 600.483 74.3829 597.99 83.5101C595.498 92.6372 589.562 100.475 581.402 105.415C573.241 110.355 563.475 112.021 554.11 110.072L549.916 108.962L486.85 88.1745V369.77C486.839 393.009 479.441 415.657 465.701 434.521C451.961 453.385 432.571 467.512 410.267 474.911C387.963 482.309 363.871 482.604 341.388 475.755C318.904 468.906 299.166 455.259 284.956 436.737C270.745 418.216 262.781 395.756 262.186 372.525C261.591 349.294 268.395 326.465 281.638 307.257C294.881 288.05 313.896 273.434 336 265.47C358.103 257.507 382.18 256.598 404.834 262.873L411.95 265.092V37.3889Z" fill="#B5C18E"/>
</svg>
